<svg width="473" height="130" viewBox="0 0 473 130" fill="none" xmlns="http://www.w3.org/2000/svg">
<path d="M0.978271 129.548H29.3969V0.597487H0.978271V129.548ZM101.51 129.548H129.929V0.597487H101.51V129.548ZM67.9928 129.548H96.4114V0.597487H67.9928V129.548ZM34.4955 83.1719H62.9141V0.597487H34.4955V83.1719Z" fill="#17406C"/>
<path d="M465.645 94.3692L457.464 107.771L449.469 94.3692H442.369L454.008 114.143V129.541H460.802V114.001L472.722 94.3692H465.645Z" fill="#17406C"/>
<path d="M314.235 77.184H299.823V67.4507H312.777V62.1374H299.823V53.508H312.707L314.564 47.7947H293.521V82.944H314.235V77.184Z" fill="#17406C"/>
<path d="M346.915 80.6625V74.0559C344.339 76.124 341.119 77.2225 337.816 77.1599H337.04C335.551 77.1672 334.075 76.8733 332.702 76.2959C331.329 75.7185 330.087 74.8695 329.051 73.8C328.014 72.7304 327.205 71.4624 326.67 70.072C326.136 68.6817 325.889 67.1977 325.943 65.7092C325.893 64.0783 326.18 62.4547 326.786 60.9396C327.392 59.4245 328.303 58.0505 329.464 56.9034C330.624 55.7563 332.008 54.8606 333.53 54.2723C335.052 53.6839 336.679 53.4156 338.309 53.4839C340.364 53.4839 342.395 53.9333 344.257 54.8013L346.045 49.2986C343.382 48.0346 340.458 47.4148 337.511 47.4893C327.713 47.1146 319.469 54.7533 319.096 64.5493C319.077 65.0456 319.079 65.5424 319.101 66.0386C318.629 75.1159 325.605 82.8572 334.683 83.3292C334.795 83.3345 334.907 83.3399 335.019 83.3425H336.852C340.401 83.5025 343.915 82.5665 346.915 80.6625Z" fill="#17406C"/>
<path d="M378.043 47.7947H350.959V53.7187H360.833V82.944H367.252V53.7187H376.139L378.043 47.7947Z" fill="#17406C"/>
<path d="M201.076 115.412C201.076 120.114 198.726 123.781 193.247 123.781C187.77 123.781 185.277 120.396 185.277 115.365V94.3465H178.835V114.918C178.835 121.172 180.975 129.918 193.154 129.918C205.332 129.918 207.542 121.642 207.542 115.082V94.3465H201.076V115.412Z" fill="#17406C"/>
<path d="M240.599 115.694L218.028 94.3704H217.088V129.542H223.412V108.312L245.959 129.542H246.9V94.3704H240.599V115.694Z" fill="#17406C"/>
<rect width="6.44135" height="35.1959" rx="3" transform="matrix(1 0 0 -1 256.727 129.542)" fill="#17406C"/>
<path d="M285.622 119.715L276.335 94.3692H269.494L283.13 129.542H287.996L302.103 94.3692H295.262L285.622 119.715Z" fill="#17406C"/>
<path d="M374.799 103.727C374.799 101.823 376.373 99.7532 380.136 99.7532C383.213 99.848 386.159 101.021 388.459 103.068V96.4852C385.873 94.7798 382.833 93.8945 379.736 93.9452C372.236 93.9452 368.121 98.6479 368.121 104.149C368.121 114.824 383.145 113.367 383.145 119.832C383.145 122.018 381.452 123.876 377.855 123.876C374.198 123.669 370.701 122.311 367.863 119.996V126.72C370.955 128.858 374.637 129.975 378.396 129.917C385.896 129.917 390.316 125.732 390.316 119.879C390.316 108.899 374.799 109.699 374.799 103.727Z" fill="#17406C"/>
<rect width="6.44131" height="35.1959" rx="3" transform="matrix(1 0 0 -1 398.497 129.542)" fill="#17406C"/>
<path d="M190.167 64.5346H184.971V53.1546H190.707C191.462 53.0581 192.23 53.131 192.953 53.3681C193.677 53.6051 194.338 54.0002 194.89 54.5249C195.441 55.0495 195.869 55.6904 196.142 56.401C196.416 57.1117 196.527 57.8742 196.469 58.6333C196.5 59.4513 196.355 60.2664 196.043 61.0236C195.732 61.7807 195.262 62.4621 194.664 63.0217C194.067 63.5812 193.356 64.0059 192.58 64.2669C191.804 64.5279 190.981 64.6192 190.167 64.5346ZM202.863 58.5866C202.863 51.5093 198.749 47.7013 191.507 47.7013H178.858V82.9666H184.995L184.971 70.1066H191.107C198.561 70.1066 202.863 65.6626 202.863 58.5866Z" fill="#17406C"/>
<path d="M253.623 69.2133C255.809 68.4586 257.686 67.0035 258.961 65.0737C260.236 63.1439 260.839 60.8473 260.676 58.54C260.676 52.0266 256.679 47.7707 249.132 47.7707H236.93V83.0372H243.09V53.2253H248.098C248.867 53.1765 249.639 53.2859 250.364 53.5468C251.09 53.8077 251.754 54.2145 252.317 54.7422C252.879 55.2699 253.327 55.9073 253.633 56.6149C253.94 57.3226 254.098 58.0855 254.098 58.8566C254.098 59.6277 253.94 60.3907 253.633 61.0983C253.327 61.806 252.879 62.4433 252.317 62.971C251.754 63.4987 251.09 63.9056 250.364 64.1665C249.639 64.4274 248.867 64.5368 248.098 64.4879H243.748V64.9346L255.644 82.9439H262.698L253.623 69.2133Z" fill="#17406C"/>
<path d="M274.736 68.4133H286.327V62.9587H274.736V53.508H286.327L288.162 47.7947H268.435V82.9426H274.736V68.4133Z" fill="#17406C"/>
<path d="M229.619 77.184H215.23V67.4507H228.162V62.1374H215.23V53.508H228.091L229.948 47.7947H208.93V82.944H229.619V77.184Z" fill="#17406C"/>
<path d="M327.541 100.083L329.399 94.3692H308.356V129.541H329.093V123.781H314.68V114.025H327.612V108.735H314.68V100.083H327.541Z" fill="#17406C"/>
<path d="M354.503 30.5374H340.024V20.7348H353.015V15.4215H340.024V6.72817H352.944L354.809 0.989518H333.669V36.3241H354.503V30.5374Z" fill="#17406C"/>
<path d="M360.785 105.138C360.785 98.6024 356.788 94.3465 349.241 94.3465H337.204V129.613H343.364V99.8011H348.372C349.142 99.7523 349.913 99.8617 350.639 100.123C351.364 100.383 352.029 100.79 352.591 101.318C353.153 101.846 353.601 102.483 353.908 103.191C354.214 103.898 354.372 104.661 354.372 105.432C354.372 106.204 354.214 106.966 353.908 107.674C353.601 108.382 353.153 109.019 352.591 109.547C352.029 110.075 351.364 110.481 350.639 110.742C349.913 111.003 349.142 111.113 348.372 111.064H343.928V111.533L355.848 129.542H362.901L353.661 115.812C355.859 115.066 357.748 113.615 359.037 111.685C360.325 109.755 360.94 107.454 360.785 105.138Z" fill="#17406C"/>
<path d="M411.381 100.295H421.256V129.542H427.675V100.295H436.561L438.465 94.3706H411.381V100.295Z" fill="#17406C"/>
<path d="M212.134 9.67617L217.018 22.4855H207.275L212.134 9.67617ZM202.025 36.3254L205.067 28.3268H219.251L222.294 36.3254H229.335L214.955 0.990861H209.484L195.006 36.3254H202.025Z" fill="#17406C"/>
<path d="M255.512 26.6308C255.512 15.6148 239.932 16.4001 239.932 10.4121C239.932 8.49748 241.503 6.41215 245.282 6.41215C248.128 6.41215 251.12 7.59081 253.648 9.74814V3.14949C251.66 1.74949 248.595 0.596164 244.888 0.596164C237.356 0.596164 233.232 5.23482 233.232 10.8295C233.232 21.5521 248.324 20.0801 248.324 26.5828C248.324 28.7668 246.606 30.6561 242.999 30.6561C239.932 30.6561 236.498 29.3561 232.963 26.7548V33.5027C235.786 35.5641 239.587 36.7174 243.539 36.7174C251.072 36.7174 255.512 32.5201 255.512 26.6308Z" fill="#17406C"/>
<path d="M268.898 21.5521H285.046V36.3241H291.522V0.989518H285.046V15.7868H268.898V0.989518H262.42V36.3241H268.898V21.5521Z" fill="#17406C"/>
<path d="M306.634 18.6827L320.744 36.3253H328.939L313.579 17.2334L327.518 0.989404H319.812L306.634 16.548V0.989404H300.156V36.3253H306.634V18.6827Z" fill="#17406C"/>
<path d="M385.291 22.4121L362.616 0.990861H361.66V36.3254H368.016V15.0028L390.664 36.3254H391.621V0.990861H385.291V22.4121Z" fill="#17406C"/>
<path d="M179.86 36.3254H186.308V6.94284H195.236L197.15 0.989526H169.94V6.94284H179.86V36.3254Z" fill="#17406C"/>
<path d="M413.193 36.3254V6.94284H422.121L424.034 0.989526H396.825V6.94284H406.745V36.3254H413.193Z" fill="#17406C"/>
</svg>
